<?xml version="1.0" encoding="UTF-8"?>
<svg version="1.1" xmlns="http://www.w3.org/2000/svg" width="248" height="129">
<path d="M0 0 C81.84 0 163.68 0 248 0 C248 42.57 248 85.14 248 129 C166.16 129 84.32 129 0 129 C0 86.43 0 43.86 0 0 Z " fill="#FEFDFD" transform="translate(0,0)"/>
<path d="M0 0 C36.3 0 72.6 0 110 0 C110 7.26 110 14.52 110 22 C109.34 22 108.68 22 108 22 C108 15.4 108 8.8 108 2 C73.02 2 38.04 2 2 2 C2 36.98 2 71.96 2 108 C36.98 108 71.96 108 108 108 C108 101.4 108 94.8 108 88 C108.66 88 109.32 88 110 88 C110 95.26 110 102.52 110 110 C95.80543617 110.02254812 81.61088414 110.0409134 67.4163065 110.05181217 C60.82595215 110.05704172 54.23561063 110.06414067 47.64526367 110.07543945 C41.29107982 110.08626578 34.93690835 110.09227629 28.58271599 110.09487724 C26.15250389 110.09673195 23.72229251 110.10035343 21.29208565 110.10573006 C17.90117019 110.11293711 14.51030659 110.11399108 11.11938477 110.11352539 C10.10374954 110.11712067 9.08811432 110.12071594 8.04170227 110.12442017 C7.12318481 110.1230455 6.20466736 110.12167084 5.25831604 110.12025452 C4.45543435 110.12117631 3.65255266 110.1220981 2.82534122 110.12304783 C1 110 1 110 0 109 C-0.09550698 107.58321089 -0.12188483 106.16168759 -0.12025452 104.74168396 C-0.12163201 103.82508468 -0.12300951 102.90848539 -0.12442875 101.96411037 C-0.12083064 100.94655698 -0.11723253 99.92900358 -0.11352539 98.88061523 C-0.11364593 97.80006646 -0.11376646 96.71951769 -0.11389065 95.60622501 C-0.11314115 92.09032736 -0.10551121 88.57448198 -0.09765625 85.05859375 C-0.09618695 82.89522324 -0.09516617 80.73185238 -0.09460449 78.56848145 C-0.08935026 70.52481556 -0.0753892 62.48115727 -0.0625 54.4375 C-0.041875 36.473125 -0.02125 18.50875 0 0 Z " fill="#FF675E" transform="translate(12,10)"/>
<path d="M0 0 C3.28870485 2.72721866 3.89723897 4.28067282 4.5 8.5 C3.9231981 12.53761333 2.85349783 14.14650217 0 17 C-3.13871188 18.56935594 -5.53855822 18.35201103 -9 18 C-12.60521591 15.02177816 -14.79128467 12.87843794 -15.3125 8.1875 C-14.92835642 4.2692355 -13.70743683 2.78706733 -11 0 C-7.48760215 -1.75619893 -3.71422336 -0.94999674 0 0 Z " fill="#151515" transform="translate(180,59)"/>
<path d="M0 0 C3.49406769 1.66762322 4.82670681 2.74006022 7 6 C7.50256748 10.62362084 6.86230692 13.3198911 4 17 C0.79062591 19.32402951 -2.11506021 19.47570691 -6 19 C-8.69990662 17.20006226 -10.5418865 15.916227 -12 13 C-12.34560019 9.98834116 -12.58340289 7.905902 -12 5 C-8.33086642 0.80670448 -5.57990079 -0.94977035 0 0 Z " fill="#131313" transform="translate(200,58)"/>
<path d="M0 0 C1.9921875 0.6328125 1.9921875 0.6328125 4.0546875 2.1953125 C5.41229423 5.72508999 5.70377689 8.90653257 4.9921875 12.6328125 C3.12203656 15.06400873 1.71080405 16.27350423 -1.0078125 17.6328125 C-3.00741262 17.6728045 -5.00828492 17.67628049 -7.0078125 17.6328125 C-7.0078125 16.6428125 -7.0078125 15.6528125 -7.0078125 14.6328125 C-3.5428125 14.1378125 -3.5428125 14.1378125 -0.0078125 13.6328125 C0.01907966 12.15374358 0.03853371 10.67453767 0.0546875 9.1953125 C0.06628906 8.37160156 0.07789062 7.54789063 0.08984375 6.69921875 C0.22486098 4.64117312 0.22486098 4.64117312 -1.0078125 3.6328125 C-3.3178125 3.9628125 -5.6278125 4.2928125 -8.0078125 4.6328125 C-8.3378125 12.2228125 -8.6678125 19.8128125 -9.0078125 27.6328125 C-10.3278125 27.6328125 -11.6478125 27.6328125 -13.0078125 27.6328125 C-13.18252632 23.90424045 -13.28879976 20.17672291 -13.3828125 16.4453125 C-13.43308594 15.39021484 -13.48335938 14.33511719 -13.53515625 13.24804688 C-13.67858767 5.67008665 -13.67858767 5.67008665 -11.81030273 2.78100586 C-7.86724723 -0.775217 -4.90405538 -0.9081584 0 0 Z " fill="#171717" transform="translate(81.0078125,49.3671875)"/>
<path d="M0 0 C3.55956846 2.04345597 5.50243928 3.16565949 6.5859375 7.16015625 C6.81662528 10.4502034 6.73764431 12.91360549 4.8515625 15.69140625 C2.28381961 18.07573893 0.19525755 18.97371533 -3.25 19.4375 C-6 19 -6 19 -8 17 C-7.67 16.01 -7.34 15.02 -7 14 C-6.67 14.33 -6.34 14.66 -6 15 C-2.48254713 14.74751373 -2.48254713 14.74751373 1 14 C2.39431504 11.21136993 2.25660094 9.07921132 2 6 C-1.22373677 3.85084215 -2.26703674 3.61713197 -6 4 C-8.52128356 6.52128356 -8.29353069 7.51239013 -8.4140625 11.0078125 C-8.45273438 11.99394531 -8.49140625 12.98007813 -8.53125 13.99609375 C-8.5621875 15.02863281 -8.593125 16.06117187 -8.625 17.125 C-8.66367188 18.16527344 -8.70234375 19.20554687 -8.7421875 20.27734375 C-8.83664766 22.85138311 -8.92221214 25.42541155 -9 28 C-10.32 28 -11.64 28 -13 28 C-13.14611313 24.62546102 -13.23433467 21.25174234 -13.3125 17.875 C-13.3753418 16.44800781 -13.3753418 16.44800781 -13.43945312 14.9921875 C-13.57759974 7.03494261 -13.57759974 7.03494261 -10.60546875 3.3828125 C-6.93122181 0.02255668 -4.97264592 -0.57376684 0 0 Z " fill="#101010" transform="translate(155,58)"/>
<path d="M0 0 C1.32 0 2.64 0 4 0 C4 5.61 4 11.22 4 17 C7.40451771 15.86516076 7.6005564 15.44722063 9.1875 12.4375 C9.785625 11.303125 10.38375 10.16875 11 9 C12.32 9.33 13.64 9.66 15 10 C13.68 12.31 12.36 14.62 11 17 C11.66 17.515625 12.32 18.03125 13 18.5625 C15.65637543 21.79995755 15.31342132 23.92552281 15 28 C13.68 28 12.36 28 11 28 C10.34 25.69 9.68 23.38 9 21 C7.35 20.67 5.7 20.34 4 20 C4 22.64 4 25.28 4 28 C2.68 28 1.36 28 0 28 C0 18.76 0 9.52 0 0 Z " fill="#202020" transform="translate(123,49)"/>
<path d="M0 0 C1.58246707 -0.08153933 3.16616273 -0.13943557 4.75 -0.1875 C6.07257813 -0.23970703 6.07257813 -0.23970703 7.421875 -0.29296875 C10.66273545 0.07531085 11.88171628 0.48944151 14 3 C14.29561076 5.87038052 14.37943016 8.33754745 14.25 11.1875 C14.23195313 11.93708984 14.21390625 12.68667969 14.1953125 13.45898438 C14.14824109 15.3065371 14.07649766 17.15343159 14 19 C12.06318839 19.08107583 10.1254066 19.13922475 8.1875 19.1875 C7.10855469 19.22230469 6.02960938 19.25710937 4.91796875 19.29296875 C2 19 2 19 0.140625 17.67578125 C-1.65549806 15.03695662 -1.45137977 13.09517555 -1 10 C1.2206051 7.532661 2.43569203 7.03847554 5.75 6.8125 C6.86375 6.9053125 6.86375 6.9053125 8 7 C8.33 7.99 8.66 8.98 9 10 C6.69 10.33 4.38 10.66 2 11 C2.33 12.32 2.66 13.64 3 15 C5.64 15.33 8.28 15.66 11 16 C10.85962479 14.18706911 10.71255111 12.3746557 10.5625 10.5625 C10.48128906 9.55316406 10.40007812 8.54382813 10.31640625 7.50390625 C10.26788532 5.06359221 10.26788532 5.06359221 9 4 C7.48530552 3.76807135 5.96245438 3.58784762 4.4375 3.4375 C3.61121094 3.35371094 2.78492187 3.26992188 1.93359375 3.18359375 C1.29550781 3.12300781 0.65742187 3.06242187 0 3 C0 2.01 0 1.02 0 0 Z " fill="#090909" transform="translate(91,58)"/>
<path d="M0 0 C3.4375 0.8125 3.4375 0.8125 5.4375 2.8125 C5.91133353 6.44522373 5.8966452 8.16629564 3.75 11.1875 C1.03059421 13.0984338 -0.31591983 13.07573623 -3.5625 12.8125 C-5.30206658 14.55206658 -4.93440386 17.0061622 -5.125 19.375 C-5.20878906 20.38691406 -5.29257813 21.39882812 -5.37890625 22.44140625 C-5.43949219 23.22386719 -5.50007812 24.00632812 -5.5625 24.8125 C-5.8925 24.8125 -6.2225 24.8125 -6.5625 24.8125 C-6.64951039 21.20848519 -6.70289388 17.60473988 -6.75 14 C-6.77513672 12.97583984 -6.80027344 11.95167969 -6.82617188 10.89648438 C-6.83583984 9.91357422 -6.84550781 8.93066406 -6.85546875 7.91796875 C-6.8711792 7.01199951 -6.88688965 6.10603027 -6.90307617 5.17260742 C-6.5625 2.8125 -6.5625 2.8125 -5.2668457 0.98168945 C-3.5625 -0.1875 -3.5625 -0.1875 0 0 Z " fill="#F4F4F4" transform="translate(152.5625,61.1875)"/>
<path d="M0 0 C0.99 0 1.98 0 3 0 C3.99 1.98 4.98 3.96 6 6 C7.95894361 5.88693303 7.95894361 5.88693303 10 5 C11.29660434 2.50965614 11.29660434 2.50965614 12 0 C12.99 0 13.98 0 15 0 C14.49287967 3.71888239 13.88391785 6.73454239 12 10 C12.495 10.556875 12.99 11.11375 13.5 11.6875 C15.24754367 14.38162983 15.26218749 15.85375007 15 19 C14.01 19 13.02 19 12 19 C11.01 16.69 10.02 14.38 9 12 C7.03243548 12.03122943 7.03243548 12.03122943 5 13 C3.6954344 15.99615946 3.6954344 15.99615946 3 19 C2.01 19 1.02 19 0 19 C-0.36630156 15.06225823 -0.30233203 13.43460229 2 10.125 C2.66 9.42375 3.32 8.7225 4 8 C3.34 8 2.68 8 2 8 C0.23537317 4.91190305 0 3.76687864 0 0 Z " fill="#0B0B0B" transform="translate(221,58)"/>
<path d="M0 0 C2 3 2 3 1.8125 6.5625 C1 10 1 10 -2 12 C-4.79523674 12.34940459 -6.3648354 12.37233787 -8.8125 10.9375 C-10.67036623 7.90624457 -10.37133265 5.46577141 -10 2 C-7.71139092 -2.30797003 -4.19123206 -1.06685907 0 0 Z " fill="#F4F4F4" transform="translate(179,62)"/>
<path d="M0 0 C1.8125 1.0625 1.8125 1.0625 3 3 C3.36841966 6.43858351 3.58367385 8.90131981 1.9375 12 C-1.22796524 13.63378851 -3.65020286 12.85267564 -7 12 C-9.31361802 8.52957297 -9.51020728 7.08165827 -9 3 C-6.30254095 0.00282328 -3.95012118 -0.60771095 0 0 Z " fill="#F3F3F3" transform="translate(200,61)"/>
<path d="M0 0 C1.32 0 2.64 0 4 0 C4.33 7.92 4.66 15.84 5 24 C5.99 24.33 6.98 24.66 8 25 C8 25.99 8 26.98 8 28 C5.125 27.75 5.125 27.75 2 27 C-0.13939888 23.91142497 -0.23628594 21.26573484 -0.1953125 17.578125 C-0.18564453 16.04091797 -0.18564453 16.04091797 -0.17578125 14.47265625 C-0.15902344 13.40917969 -0.14226562 12.34570312 -0.125 11.25 C-0.11597656 10.17105469 -0.10695312 9.09210937 -0.09765625 7.98046875 C-0.07411305 5.32008722 -0.04122799 2.66015664 0 0 Z " fill="#222222" transform="translate(211,49)"/>
<path d="M0 0 C2 2 2 2 2.3125 5.4375 C2 9 2 9 0.8125 10.9375 C-1.56041618 12.32851983 -3.29686424 12.21917317 -6 12 C-6.33 12.99 -6.66 13.98 -7 15 C-7.9738963 12.07831111 -8.19605823 9.98970526 -8.25 6.9375 C-8.27578125 6.05964844 -8.3015625 5.18179688 -8.328125 4.27734375 C-8.21984375 3.52582031 -8.1115625 2.77429687 -8 2 C-4.77626323 -0.14915785 -3.73296326 -0.38286803 0 0 Z " fill="#F4F4F4" transform="translate(80,52)"/>
<path d="M0 0 C0 0.99 0 1.98 0 3 C-2.31 3.33 -4.62 3.66 -7 4 C-7.33 8.95 -7.66 13.9 -8 19 C-9.32 19 -10.64 19 -12 19 C-12.10826289 16.5821288 -12.18739789 14.16912444 -12.25 11.75 C-12.28351563 11.06808594 -12.31703125 10.38617188 -12.3515625 9.68359375 C-12.41785919 6.26931415 -12.24674427 4.34808567 -10.25 1.53125 C-6.68561086 -0.89451483 -4.22241463 -0.28149431 0 0 Z " fill="#202020" transform="translate(121,58)"/>
<path d="M0 0 C0 7.59 0 15.18 0 23 C-1.32 23 -2.64 23 -4 23 C-4.0868329 19.541824 -4.14033282 16.08392656 -4.1875 12.625 C-4.21263672 11.64015625 -4.23777344 10.6553125 -4.26367188 9.640625 C-4.27333984 8.69960937 -4.28300781 7.75859375 -4.29296875 6.7890625 C-4.3086792 5.91975098 -4.32438965 5.05043945 -4.34057617 4.15478516 C-4.22818604 3.44370605 -4.1157959 2.73262695 -4 2 C-1 0 -1 0 0 0 Z " fill="#262626" transform="translate(146,63)"/>
<path d="M0 0 C0.33 0 0.66 0 1 0 C1 3.63 1 7.26 1 11 C-1.64 11 -4.28 11 -7 11 C-7.33 9.35 -7.66 7.7 -8 6 C-4.535 5.505 -4.535 5.505 -1 5 C-1.33 4.01 -1.66 3.02 -2 2 C-1.34 2 -0.68 2 0 2 C0 1.34 0 0.68 0 0 Z " fill="#E5E5E5" transform="translate(101,63)"/>
<path d="M0 0 C2.0625 0.4375 2.0625 0.4375 4 1 C0.375 5.875 0.375 5.875 -3 7 C-1.125 1.125 -1.125 1.125 0 0 Z " fill="#1E1E1E" transform="translate(134,58)"/>
</svg>
